<svg xmlns="http://www.w3.org/2000/svg" width="1920" height="1080" viewBox="0 0 1920 1080" role="img" aria-labelledby="title description" data-theme="graphite" data-theme-appearance="light">
  <title id="title">Tasks / Inside the tasks CLI</title><desc id="description">Registry and dispatch tiers, the read, mutation, prompt, and maintenance verbs, and the merge-driver plumbing Git invokes. Which verbs use the facade and which call the store directly is stated on each card; the cli-mutation journey walks one write.. Architecture structure.</desc>
  <defs><marker id="arrow" viewBox="0 0 10 10" refX="9" refY="5" markerWidth="5" markerHeight="5" orient="auto-start-reverse"><path d="M 0 0 L 10 5 L 0 10 z" fill="#85857f"/></marker></defs>
  <rect width="1920" height="1080" fill="#f8f8f6"/>
  <g font-family="Arial, Helvetica, sans-serif"><text x="96" y="58" font-size="12" letter-spacing="3" fill="#626b6f">FRACTAL / SYSTEM MODEL</text>
  <g data-export-layer="title"><text x="96" y="116" font-size="48" font-weight="600" fill="#292927"><tspan x="96" dy="0">Tasks / Inside the tasks CLI</tspan></text></g>
  <g data-export-layer="subtitle"><text x="96" y="170" font-size="19" font-weight="400" fill="#74746f"><tspan x="96" dy="0">Registry and dispatch tiers, the read, mutation, prompt, and maintenance verbs, and the merge-driver plumbing Git invokes. Which verbs use the facade and which call the store</tspan><tspan x="96" dy="26">directly is stated on each card; the cli-mutation journey walks one write.</tspan></text></g>
  <g data-export-layer="diagram" transform="translate(519.171 236) scale(0.601)"><g data-element="cli"><rect x="380.58" y="60.5" width="702.9799999999999" height="1080" rx="14" fill="#eeeeeb" stroke="#d5d5d0" stroke-width="1.3"/>
      <g transform="translate(1057.56 77.5) scale(0.667)" color="#82A6B6" opacity="0.85"><title>Subsystem</title><g fill="none" stroke="currentColor" stroke-width="1.5" stroke-linecap="round" stroke-linejoin="round"><rect x="3" y="8" width="13" height="13" rx="2"/><path d="M8 5V3h13v13h-2"/></g></g>
      <text x="404.58" y="90.5" font-size="14" font-weight="600" fill="#292927"><tspan x="404.58" dy="0">tasks CLI</tspan></text>
      <text x="400.58" y="114.5" font-size="12" font-weight="400" fill="#6d6d68"></text>
      </g><path d="M151.8,149 L339.58,149 L339.58,215.5 L404.58,215.5" fill="none" stroke="#85857f" stroke-width="1.5" marker-end="url(#arrow)"/><path d="M618.58,215.5 L634.58,215.5 L634.58,321.5 L1316.12,321.5" fill="none" stroke="#85857f" stroke-width="1.5" marker-end="url(#arrow)"/><path d="M618.58,215.5 L634.58,215.5 L634.58,420 L842.62,420" fill="none" stroke="#85857f" stroke-width="1.5" marker-end="url(#arrow)"/><path d="M618.58,215.5 L634.58,215.5 L634.58,632 L842.62,632" fill="none" stroke="#85857f" stroke-width="1.5" marker-end="url(#arrow)"/><path d="M618.58,215.5 L839.68,215.5" fill="none" stroke="#85857f" stroke-width="1.5" marker-end="url(#arrow)"/><path d="M618.58,215.5 L634.58,215.5 L634.58,833.5 L842.62,833.5" fill="none" stroke="#85857f" stroke-width="1.5" marker-end="url(#arrow)"/><path d="M618.58,215.5 L634.58,215.5 L634.58,1026.5 L842.62,1026.5" fill="none" stroke="#85857f" stroke-width="1.5" marker-end="url(#arrow)"/><path d="M1056.62,420 L1128.56,420 L1128.56,558 L1284.12,558 L1284.12,632 L1316.12,632" fill="none" stroke="#85857f" stroke-width="1.5" marker-end="url(#arrow)"/><path d="M1056.62,420 L1128.56,420 L1128.56,959 L1284.12,959 L1284.12,1166 L1316.12,1166" fill="none" stroke="#85857f" stroke-width="1.5" marker-end="url(#arrow)"/><path d="M1056.62,632 L1118.56,632 L1118.56,1092 L1284.12,1092 L1284.12,1166 L1316.12,1166" fill="none" stroke="#85857f" stroke-width="1.5" marker-end="url(#arrow)"/><path d="M1056.62,833.5 L1108.56,833.5 L1108.56,1166 L1316.12,1166" fill="none" stroke="#85857f" stroke-width="1.5" marker-end="url(#arrow)"/><path d="M1056.62,632 L1316.12,632" fill="none" stroke="#85857f" stroke-width="1.5" marker-end="url(#arrow)"/><path d="M1056.62,420 L1128.56,420 L1128.56,892.5 L1316.12,892.5" fill="none" stroke="#85857f" stroke-width="1.5" marker-end="url(#arrow)"/><path d="M1056.62,632 L1118.56,632 L1118.56,774.5 L1284.12,774.5 L1284.12,892.5 L1316.12,892.5" fill="none" stroke="#85857f" stroke-width="1.5" marker-end="url(#arrow)"/><path d="M1056.62,833.5 L1284.12,833.5 L1284.12,892.5 L1316.12,892.5" fill="none" stroke="#85857f" stroke-width="1.5" marker-end="url(#arrow)"/><path d="M1059.56,215.5 L1316.12,215.5" fill="none" stroke="#85857f" stroke-width="1.5" marker-end="url(#arrow)"/><path d="M1059.56,215.5 L1108.56,215.5 L1108.56,44.5 L24,44.5 L24,1101.5 L40,1101.5" fill="none" stroke="#85857f" stroke-width="1.5" marker-end="url(#arrow)"/><path d="M1056.62,1026.5 L1128.56,1026.5 L1128.56,1025.5 L1284.12,1025.5 L1284.12,1166 L1316.12,1166" fill="none" stroke="#85857f" stroke-width="1.5" marker-end="url(#arrow)"/><path d="M151.8,1101.5 L807.68,1101.5 L807.68,1026.5 L842.62,1026.5" fill="none" stroke="#85857f" stroke-width="1.5" marker-end="url(#arrow)"/><path d="M151.8,1101.5 L167.8,1101.5 L167.8,215.5 L404.58,215.5" fill="none" stroke="#85857f" stroke-width="1.5" marker-end="url(#arrow)"/><g data-element="cli.dispatch"><rect x="405.58" y="125.5" width="212" height="180" rx="14" fill="#ffffff" stroke="#d5d5d0" stroke-width="1.3"/>
      <g transform="translate(591.58 142.5) scale(0.667)" color="#82A6B6" opacity="0.85"><title>Component</title><g fill="none" stroke="currentColor" stroke-width="1.5" stroke-linecap="round" stroke-linejoin="round"><path d="M7 7V4h13v16H7v-3m0-6v2"/><rect x="3" y="7" width="8" height="4" rx="1"/><rect x="3" y="13" width="8" height="4" rx="1"/></g></g>
      <text x="425.58" y="157.5" font-size="14" font-weight="600" fill="#292927"><tspan x="425.58" dy="0">Registry &amp;</tspan><tspan x="425.58" dy="20">Dispatch</tspan></text>
      <text x="425.58" y="202.5" font-size="12" font-weight="400" fill="#6d6d68"><tspan x="425.58" dy="0">Verb registry, aliases, help,</tspan><tspan x="425.58" dy="17">version. Only help, version,</tspan><tspan x="425.58" dy="17">merge-driver,</tspan><tspan x="425.58" dy="17">install-merge-driver run</tspan><tspan x="425.58" dy="17">before config; all else</tspan><tspan x="425.58" dy="17">needs a store.</tspan></text>
      </g><g data-element="cli.read"><rect x="843.6199999999999" y="338.5" width="212" height="163" rx="14" fill="#ffffff" stroke="#d5d5d0" stroke-width="1.3"/>
      <g transform="translate(1029.62 355.5) scale(0.667)" color="#82A6B6" opacity="0.85"><title>Component</title><g fill="none" stroke="currentColor" stroke-width="1.5" stroke-linecap="round" stroke-linejoin="round"><path d="M7 7V4h13v16H7v-3m0-6v2"/><rect x="3" y="7" width="8" height="4" rx="1"/><rect x="3" y="13" width="8" height="4" rx="1"/></g></g>
      <text x="863.62" y="370.5" font-size="14" font-weight="600" fill="#292927"><tspan x="863.62" dy="0">Read &amp; Render</tspan><tspan x="863.62" dy="20">Commands</tspan></text>
      <text x="863.62" y="415.5" font-size="12" font-weight="400" fill="#6d6d68"><tspan x="863.62" dy="0">list, show, agenda, next,</tspan><tspan x="863.62" dy="17">quadrants, inbox, projects,</tspan><tspan x="863.62" dy="17">links, id, workref: one</tspan><tspan x="863.62" dy="17">snapshot, taskquery, text</tspan><tspan x="863.62" dy="17">or --json. open shells out.</tspan></text>
      </g><g data-element="cli.mutate"><rect x="843.6199999999999" y="533.5" width="212" height="197" rx="14" fill="#ffffff" stroke="#d5d5d0" stroke-width="1.3"/>
      <g transform="translate(1029.62 550.5) scale(0.667)" color="#82A6B6" opacity="0.85"><title>Component</title><g fill="none" stroke="currentColor" stroke-width="1.5" stroke-linecap="round" stroke-linejoin="round"><path d="M7 7V4h13v16H7v-3m0-6v2"/><rect x="3" y="7" width="8" height="4" rx="1"/><rect x="3" y="13" width="8" height="4" rx="1"/></g></g>
      <text x="863.62" y="565.5" font-size="14" font-weight="600" fill="#292927"><tspan x="863.62" dy="0">Mutation</tspan><tspan x="863.62" dy="20">Commands</tspan></text>
      <text x="863.62" y="610.5" font-size="12" font-weight="400" fill="#6d6d68"><tspan x="863.62" dy="0">capture and project</tspan><tspan x="863.62" dy="17">complete, drop, reopen use</tspan><tspan x="863.62" dy="17">the facade; every other</tspan><tspan x="863.62" dy="17">verb calls the store</tspan><tspan x="863.62" dy="17">directly. Baselines guard</tspan><tspan x="863.62" dy="17">patches, changesets,</tspan><tspan x="863.62" dy="17">delete.</tspan></text>
      </g><g data-element="cli.prompt"><rect x="840.68" y="125.5" width="217.87999999999997" height="180" rx="14" fill="#ffffff" stroke="#d5d5d0" stroke-width="1.3"/>
      <g transform="translate(1032.56 142.5) scale(0.667)" color="#82A6B6" opacity="0.85"><title>Component</title><g fill="none" stroke="currentColor" stroke-width="1.5" stroke-linecap="round" stroke-linejoin="round"><path d="M7 7V4h13v16H7v-3m0-6v2"/><rect x="3" y="7" width="8" height="4" rx="1"/><rect x="3" y="13" width="8" height="4" rx="1"/></g></g>
      <text x="860.68" y="157.5" font-size="14" font-weight="600" fill="#292927"><tspan x="860.68" dy="0">Agent Prompt</tspan><tspan x="860.68" dy="20">(tasks -p)</tspan></text>
      <text x="860.68" y="202.5" font-size="12" font-weight="400" fill="#6d6d68"><tspan x="860.68" dy="0">Builds the system context,</tspan><tspan x="860.68" dy="17">runs the harness</tspan><tspan x="860.68" dy="17">synchronously in the data</tspan><tspan x="860.68" dy="17">directory, then prints git</tspan><tspan x="860.68" dy="17">diff of the task files. No</tspan><tspan x="860.68" dy="17">--json.</tspan></text>
      </g><g data-element="cli.maintenance"><rect x="843.6199999999999" y="762.5" width="212" height="142" rx="14" fill="#ffffff" stroke="#d5d5d0" stroke-width="1.3"/>
      <g transform="translate(1029.62 779.5) scale(0.667)" color="#82A6B6" opacity="0.85"><title>Component</title><g fill="none" stroke="currentColor" stroke-width="1.5" stroke-linecap="round" stroke-linejoin="round"><path d="M7 7V4h13v16H7v-3m0-6v2"/><rect x="3" y="7" width="8" height="4" rx="1"/><rect x="3" y="13" width="8" height="4" rx="1"/></g></g>
      <text x="863.62" y="794.5" font-size="14" font-weight="600" fill="#292927"><tspan x="863.62" dy="0">Check &amp; Repair</tspan></text>
      <text x="863.62" y="818.5" font-size="12" font-weight="400" fill="#6d6d68"><tspan x="863.62" dy="0">tasks check and repair over</tspan><tspan x="863.62" dy="17">the store lint and repair</tspan><tspan x="863.62" dy="17">entry points; both need a</tspan><tspan x="863.62" dy="17">configured store like any</tspan><tspan x="863.62" dy="17">other verb.</tspan></text>
      </g><g data-element="cli.mergedriver"><rect x="843.6199999999999" y="936.5" width="212" height="180" rx="14" fill="#ffffff" stroke="#d5d5d0" stroke-width="1.3"/>
      <g transform="translate(1029.62 953.5) scale(0.667)" color="#82A6B6" opacity="0.85"><title>Component</title><g fill="none" stroke="currentColor" stroke-width="1.5" stroke-linecap="round" stroke-linejoin="round"><path d="M7 7V4h13v16H7v-3m0-6v2"/><rect x="3" y="7" width="8" height="4" rx="1"/><rect x="3" y="13" width="8" height="4" rx="1"/></g></g>
      <text x="863.62" y="968.5" font-size="14" font-weight="600" fill="#292927"><tspan x="863.62" dy="0">Merge Driver</tspan><tspan x="863.62" dy="20">Plumbing</tspan></text>
      <text x="863.62" y="1013.5" font-size="12" font-weight="400" fill="#6d6d68"><tspan x="863.62" dy="0">merge-driver, the early</tspan><tspan x="863.62" dy="17">verb Git invokes with stage</tspan><tspan x="863.62" dy="17">files, and</tspan><tspan x="863.62" dy="17">install-merge-driver, which</tspan><tspan x="863.62" dy="17">sets merge.tasksjsonl and</tspan><tspan x="863.62" dy="17">checks .gitattributes.</tspan></text>
      </g><g data-outside-port="developer" transform="translate(72.8 131)" role="group" aria-label="Outside scope: Developer. 1 connection."><rect width="78" height="36" rx="7" fill="#ffffff" stroke="#7d7d77" stroke-width="1.2"/><text x="39" y="17" text-anchor="middle" font-size="10" font-weight="600" fill="#292927">Developer</text><text x="39" y="29" text-anchor="middle" font-size="8" fill="#6d6d68">outside scope</text></g><g data-outside-port="platform" transform="translate(1317.12 298)" role="group" aria-label="Outside scope: Configuration &amp; Harness Pins. 1 connection."><rect width="98.2" height="47" rx="7" fill="#ffffff" stroke="#7d7d77" stroke-width="1.2"/><text x="49.1" y="17" text-anchor="middle" font-size="10" font-weight="600" fill="#292927">Configuration &amp;</text><text x="49.1" y="28" text-anchor="middle" font-size="10" font-weight="600" fill="#292927">Harness Pins</text><text x="49.1" y="40" text-anchor="middle" font-size="8" fill="#6d6d68">outside scope</text></g><g data-outside-port="core" transform="translate(1317.12 608.5)" role="group" aria-label="Outside scope: Shared Application Core. 3 connections."><rect width="112.8" height="47" rx="7" fill="#ffffff" stroke="#7d7d77" stroke-width="1.2"/><text x="56.4" y="17" text-anchor="middle" font-size="10" font-weight="600" fill="#292927">Shared Application</text><text x="56.4" y="28" text-anchor="middle" font-size="10" font-weight="600" fill="#292927">Core</text><text x="56.4" y="40" text-anchor="middle" font-size="8" fill="#6d6d68">outside scope</text></g><g data-outside-port="store" transform="translate(1317.12 1142.5)" role="group" aria-label="Outside scope: Persistence &amp; Invariants. 5 connections."><rect width="89.3" height="47" rx="7" fill="#ffffff" stroke="#7d7d77" stroke-width="1.2"/><text x="44.65" y="17" text-anchor="middle" font-size="10" font-weight="600" fill="#292927">Persistence &amp;</text><text x="44.65" y="28" text-anchor="middle" font-size="10" font-weight="600" fill="#292927">Invariants</text><text x="44.65" y="40" text-anchor="middle" font-size="8" fill="#6d6d68">outside scope</text></g><g data-outside-port="platform.jsonout" transform="translate(1317.12 874.5)" role="group" aria-label="Outside scope: Ordered JSON Writer. 3 connections."><rect width="124.9" height="36" rx="7" fill="#ffffff" stroke="#7d7d77" stroke-width="1.2"/><text x="62.45" y="17" text-anchor="middle" font-size="10" font-weight="600" fill="#292927">Ordered JSON Writer</text><text x="62.45" y="29" text-anchor="middle" font-size="8" fill="#6d6d68">outside scope</text></g><g data-outside-port="agent" transform="translate(1317.12 197.5)" role="group" aria-label="Outside scope: Agent Adapters. 2 connections."><rect width="97.5" height="36" rx="7" fill="#ffffff" stroke="#7d7d77" stroke-width="1.2"/><text x="48.75" y="17" text-anchor="middle" font-size="10" font-weight="600" fill="#292927">Agent Adapters</text><text x="48.75" y="29" text-anchor="middle" font-size="8" fill="#6d6d68">outside scope</text></g><g data-outside-port="external" transform="translate(41 1078)" role="group" aria-label="Outside scope: External Actors &amp; Stores. 3 connections."><rect width="109.8" height="47" rx="7" fill="#ffffff" stroke="#7d7d77" stroke-width="1.2"/><text x="54.9" y="17" text-anchor="middle" font-size="10" font-weight="600" fill="#292927">External Actors &amp;</text><text x="54.9" y="28" text-anchor="middle" font-size="10" font-weight="600" fill="#292927">Stores</text><text x="54.9" y="40" text-anchor="middle" font-size="8" fill="#6d6d68">outside scope</text></g><g><rect x="207.06" y="131.5" width="109.25999999999998" height="38" rx="5" fill="#f8f8f6"/><text x="261.69" y="144.5" text-anchor="middle" font-size="11" fill="#62625e"><tspan x="261.69" dy="0">Runs tasks verbs</tspan><tspan x="261.69" dy="15">from a shell</tspan></text></g><g><rect x="1149.565" y="304" width="113.54999999999997" height="38" rx="5" fill="#f8f8f6"/><text x="1206.3400000000001" y="317" text-anchor="middle" font-size="11" fill="#62625e"><tspan x="1206.3400000000001" dy="0">Resolves paths,</tspan><tspan x="1206.3400000000001" dy="15">settings, and pins</tspan></text></g><g><rect x="677.7449999999999" y="426" width="102.76999999999998" height="38" rx="5" fill="#f8f8f6"/><text x="729.1299999999999" y="439" text-anchor="middle" font-size="11" fill="#62625e"><tspan x="729.1299999999999" dy="0">Dispatches read</tspan><tspan x="729.1299999999999" dy="15">verbs</tspan></text></g><g><rect x="666.5799999999999" y="638" width="125.09999999999997" height="38" rx="5" fill="#f8f8f6"/><text x="729.1299999999999" y="651" text-anchor="middle" font-size="11" fill="#62625e"><tspan x="729.1299999999999" dy="0">Dispatches mutation</tspan><tspan x="729.1299999999999" dy="15">verbs</tspan></text></g><g><rect x="684.015" y="221.5" width="90.22999999999999" height="23" rx="5" fill="#f8f8f6"/><text x="729.13" y="234.5" text-anchor="middle" font-size="11" fill="#62625e"><tspan x="729.13" dy="0">Dispatches -p</tspan></text></g><g><rect x="674.6099999999999" y="839.5" width="109.03999999999998" height="38" rx="5" fill="#f8f8f6"/><text x="729.1299999999999" y="852.5" text-anchor="middle" font-size="11" fill="#62625e"><tspan x="729.1299999999999" dy="0">Dispatches check</tspan><tspan x="729.1299999999999" dy="15">and repair</tspan></text></g><g><rect x="680.4949999999999" y="1032.5" width="97.26999999999998" height="53" rx="5" fill="#f8f8f6"/><text x="729.1299999999999" y="1045.5" text-anchor="middle" font-size="11" fill="#62625e"><tspan x="729.1299999999999" dy="0">Early dispatch,</tspan><tspan x="729.1299999999999" dy="15">before config</tspan><tspan x="729.1299999999999" dy="15">resolves</tspan></text></g><g><rect x="1148.19" y="540.5" width="116.29999999999997" height="38" rx="5" fill="#f8f8f6"/><text x="1206.3400000000001" y="553.5" text-anchor="middle" font-size="11" fill="#62625e"><tspan x="1206.3400000000001" dy="0">Parses filters and</tspan><tspan x="1206.3400000000001" dy="15">answers views ×2</tspan></text></g><g><rect x="1152.7000000000003" y="934" width="107.27999999999997" height="53" rx="5" fill="#f8f8f6"/><text x="1206.3400000000001" y="947" text-anchor="middle" font-size="11" fill="#62625e"><tspan x="1206.3400000000001" dy="0">Calls the store</tspan><tspan x="1206.3400000000001" dy="15">directly, not the</tspan><tspan x="1206.3400000000001" dy="15">facade</tspan></text></g><g><rect x="1152.7000000000003" y="1067" width="107.27999999999997" height="53" rx="5" fill="#f8f8f6"/><text x="1206.3400000000001" y="1080" text-anchor="middle" font-size="11" fill="#62625e"><tspan x="1206.3400000000001" dy="0">Calls the store</tspan><tspan x="1206.3400000000001" dy="15">directly, not the</tspan><tspan x="1206.3400000000001" dy="15">facade ×2</tspan></text></g><g><rect x="1152.7000000000003" y="1141" width="107.27999999999997" height="53" rx="5" fill="#f8f8f6"/><text x="1206.3400000000001" y="1154" text-anchor="middle" font-size="11" fill="#62625e"><tspan x="1206.3400000000001" dy="0">Calls the store</tspan><tspan x="1206.3400000000001" dy="15">directly, not the</tspan><tspan x="1206.3400000000001" dy="15">facade</tspan></text></g><g><rect x="1151.82" y="599.5" width="109.03999999999998" height="68" rx="5" fill="#f8f8f6"/><text x="1206.34" y="612.5" text-anchor="middle" font-size="11" fill="#62625e"><tspan x="1206.34" dy="0">capture, project</tspan><tspan x="1206.34" dy="15">complete, drop,</tspan><tspan x="1206.34" dy="15">reopen via the</tspan><tspan x="1206.34" dy="15">facade</tspan></text></g><g><rect x="1164.36" y="875" width="83.95999999999998" height="38" rx="5" fill="#f8f8f6"/><text x="1206.34" y="888" text-anchor="middle" font-size="11" fill="#62625e"><tspan x="1206.34" dy="0">Emits --json</tspan><tspan x="1206.34" dy="15">documents</tspan></text></g><g><rect x="1164.36" y="757" width="83.95999999999998" height="38" rx="5" fill="#f8f8f6"/><text x="1206.34" y="770" text-anchor="middle" font-size="11" fill="#62625e"><tspan x="1206.34" dy="0">Emits --json</tspan><tspan x="1206.34" dy="15">documents</tspan></text></g><g><rect x="1164.36" y="816" width="83.95999999999998" height="38" rx="5" fill="#f8f8f6"/><text x="1206.34" y="829" text-anchor="middle" font-size="11" fill="#62625e"><tspan x="1206.34" dy="0">Emits --json</tspan><tspan x="1206.34" dy="15">documents</tspan></text></g><g><rect x="1144.56" y="190.5" width="123.55999999999996" height="53" rx="5" fill="#f8f8f6"/><text x="1206.34" y="203.5" text-anchor="middle" font-size="11" fill="#62625e"><tspan x="1206.34" dy="0">tasks -p: builds the</tspan><tspan x="1206.34" dy="15">context, runs the</tspan><tspan x="1206.34" dy="15">harness ×2</tspan></text></g><g><rect x="199.8" y="27" width="123.77999999999997" height="38" rx="5" fill="#f8f8f6"/><text x="261.69" y="40" text-anchor="middle" font-size="11" fill="#62625e"><tspan x="261.69" dy="0">git diff of the task</tspan><tspan x="261.69" dy="15">files after the run</tspan></text></g><g><rect x="1146.815" y="1008" width="119.04999999999997" height="38" rx="5" fill="#f8f8f6"/><text x="1206.3400000000001" y="1021" text-anchor="middle" font-size="11" fill="#62625e"><tspan x="1206.3400000000001" dy="0">RunDriver over the</tspan><tspan x="1206.3400000000001" dy="15">stage files</tspan></text></g><g><rect x="205.685" y="1069" width="112.00999999999999" height="68" rx="5" fill="#f8f8f6"/><text x="261.69" y="1082" text-anchor="middle" font-size="11" fill="#62625e"><tspan x="261.69" dy="0">Invokes tasks</tspan><tspan x="261.69" dy="15">merge-driver %O</tspan><tspan x="261.69" dy="15">%A %B %P %L %X</tspan><tspan x="261.69" dy="15">%Y</tspan></text></g><g><rect x="203.15500000000003" y="190.5" width="117.06999999999996" height="53" rx="5" fill="#f8f8f6"/><text x="261.69" y="203.5" text-anchor="middle" font-size="11" fill="#62625e"><tspan x="261.69" dy="0">Reads and mutates</tspan><tspan x="261.69" dy="15">only through the</tspan><tspan x="261.69" dy="15">installed tasks CLI</tspan></text></g></g>
  <g data-export-layer="legend"></g><path d="M96 1010H1824" stroke="#ddddda"/><text x="96" y="1044" font-size="13" fill="#7d7d77">STRUCTURE · CURRENT SYSTEM</text><text x="1824" y="1044" text-anchor="end" font-size="13" fill="#7d7d77">FOCUS: tasks CLI · 18 external connections drawn as outside ports</text></g></svg>
