<svg xmlns="http://www.w3.org/2000/svg" width="1920" height="1080" viewBox="0 0 1920 1080" role="img" aria-labelledby="title description" data-theme="graphite" data-theme-appearance="light">
  <title id="title">Tasks / One Core, Three Surfaces</title><desc id="description">Tasks is a single checked Go core over JSONL files. The CLI, TUI, and loopback API are thin adapters; agents, Git, and Sidecar sit outside.. Architecture structure.</desc>
  <defs><marker id="arrow" viewBox="0 0 10 10" refX="9" refY="5" markerWidth="5" markerHeight="5" orient="auto-start-reverse"><path d="M 0 0 L 10 5 L 0 10 z" fill="#85857f"/></marker></defs>
  <rect width="1920" height="1080" fill="#f8f8f6"/>
  <g font-family="Arial, Helvetica, sans-serif"><text x="96" y="58" font-size="12" letter-spacing="3" fill="#626b6f">FRACTAL / SYSTEM MODEL</text>
  <g data-export-layer="title"><text x="96" y="116" font-size="48" font-weight="600" fill="#292927"><tspan x="96" dy="0">Tasks / One Core, Three Surfaces</tspan></text></g>
  <g data-export-layer="subtitle"><text x="96" y="170" font-size="19" font-weight="400" fill="#74746f"><tspan x="96" dy="0">Tasks is a single checked Go core over JSONL files. The CLI, TUI, and loopback API are thin adapters; agents, Git, and Sidecar sit outside.</tspan></text></g>
  <g data-export-layer="diagram" transform="translate(552.791 210) scale(0.392)"><path d="M248.08,441 L453.34,441" fill="none" stroke="#85857f" stroke-width="1.5" marker-end="url(#arrow)"/><path d="M248.08,441 L264.08,441 L264.08,871 L453.34,871" fill="none" stroke="#85857f" stroke-width="1.5" marker-end="url(#arrow)"/><path d="M2024.79,424 L2053.95,424 L2053.95,1731 L421.34,1731 L421.34,1242.5 L453.34,1242.5" fill="none" stroke="#85857f" stroke-width="1.5" marker-end="url(#arrow)"/><path d="M248.08,794 L421.34,794 L421.34,871 L453.34,871" fill="none" stroke="#85857f" stroke-width="1.5" marker-end="url(#arrow)"/><path d="M667.34,441 L703.34,441 L703.34,1518 L858.68,1518 L858.68,1642 L890.68,1642" fill="none" stroke="#85857f" stroke-width="1.5" marker-end="url(#arrow)"/><path d="M667.34,871 L683.34,871 L683.34,1642 L890.68,1642" fill="none" stroke="#85857f" stroke-width="1.5" marker-end="url(#arrow)"/><path d="M667.34,1242.5 L693.34,1242.5 L693.34,1580 L858.68,1580 L858.68,1642 L890.68,1642" fill="none" stroke="#85857f" stroke-width="1.5" marker-end="url(#arrow)"/><path d="M667.34,441 L703.34,441 L703.34,948 L914.2,948" fill="none" stroke="#85857f" stroke-width="1.5" marker-end="url(#arrow)"/><path d="M667.34,441 L703.34,441 L703.34,1070 L1329.28,1070 L1329.28,1448 L1361.28,1448" fill="none" stroke="#85857f" stroke-width="1.5" marker-end="url(#arrow)"/><path d="M667.34,441 L858.68,441 L858.68,948 L914.2,948" fill="none" stroke="#85857f" stroke-width="1.5" marker-end="url(#arrow)"/><path d="M667.34,441 L703.34,441 L703.34,1180.5 L858.68,1180.5 L858.68,1242.5 L890.68,1242.5" fill="none" stroke="#85857f" stroke-width="1.5" marker-end="url(#arrow)"/><path d="M667.34,441 L703.34,441 L703.34,424 L868.68,424 L868.68,315 L1364.57,315" fill="none" stroke="#85857f" stroke-width="1.5" marker-end="url(#arrow)"/><path d="M667.34,441 L703.34,441 L703.34,424 L1800.43,424" fill="none" stroke="#85857f" stroke-width="1.5" marker-end="url(#arrow)"/><path d="M667.34,441 L703.34,441 L703.34,424 L868.68,424 L868.68,782 L1165.96,782 L1165.96,1070 L1329.28,1070 L1329.28,1448 L1361.28,1448" fill="none" stroke="#85857f" stroke-width="1.5" marker-end="url(#arrow)"/><path d="M2024.79,424 L2053.95,424 L2053.95,101 L421.34,101 L421.34,441 L453.34,441" fill="none" stroke="#85857f" stroke-width="1.5" marker-end="url(#arrow)"/><path d="M667.34,871 L683.34,871 L683.34,852 L858.68,852 L858.68,948 L914.2,948" fill="none" stroke="#85857f" stroke-width="1.5" marker-end="url(#arrow)"/><path d="M667.34,871 L858.68,871 L858.68,948 L914.2,948" fill="none" stroke="#85857f" stroke-width="1.5" marker-end="url(#arrow)"/><path d="M667.34,871 L683.34,871 L683.34,1448 L1361.28,1448" fill="none" stroke="#85857f" stroke-width="1.5" marker-end="url(#arrow)"/><path d="M667.34,871 L683.34,871 L683.34,223 L1155.96,223 L1155.96,315 L1364.57,315" fill="none" stroke="#85857f" stroke-width="1.5" marker-end="url(#arrow)"/><path d="M667.34,1242.5 L693.34,1242.5 L693.34,702 L858.68,702 L858.68,948 L914.2,948" fill="none" stroke="#85857f" stroke-width="1.5" marker-end="url(#arrow)"/><path d="M667.34,1242.5 L693.34,1242.5 L693.34,610 L858.68,610 L858.68,948 L914.2,948" fill="none" stroke="#85857f" stroke-width="1.5" marker-end="url(#arrow)"/><path d="M667.34,1242.5 L693.34,1242.5 L693.34,533 L858.68,533 L858.68,948 L914.2,948" fill="none" stroke="#85857f" stroke-width="1.5" marker-end="url(#arrow)"/><path d="M667.34,1242.5 L890.68,1242.5" fill="none" stroke="#85857f" stroke-width="1.5" marker-end="url(#arrow)"/><path d="M667.34,1242.5 L693.34,1242.5 L693.34,1429 L1155.96,1429 L1155.96,1448 L1361.28,1448" fill="none" stroke="#85857f" stroke-width="1.5" marker-end="url(#arrow)"/><path d="M1128.2,948 L1155.96,948 L1155.96,1358 L1329.28,1358 L1329.28,1448 L1361.28,1448" fill="none" stroke="#85857f" stroke-width="1.5" marker-end="url(#arrow)"/><path d="M1581.86,1448 L1597.86,1448 L1597.86,766 L858.68,766 L858.68,948 L914.2,948" fill="none" stroke="#85857f" stroke-width="1.5" marker-end="url(#arrow)"/><path d="M1581.86,1448 L1597.86,1448 L1597.86,1809.5 L1768.43,1809.5 L1768.43,1828.5 L1800.43,1828.5" fill="none" stroke="#85857f" stroke-width="1.5" marker-end="url(#arrow)"/><path d="M1581.86,1448 L1597.86,1448 L1597.86,1828.5 L1800.43,1828.5" fill="none" stroke="#85857f" stroke-width="1.5" marker-end="url(#arrow)"/><path d="M1581.86,1448 L1597.86,1448 L1597.86,210 L1768.43,210 L1768.43,424 L1800.43,424" fill="none" stroke="#85857f" stroke-width="1.5" marker-end="url(#arrow)"/><path d="M1578.57,315 L1607.86,315 L1607.86,118 L1768.43,118 L1768.43,424 L1800.43,424" fill="none" stroke="#85857f" stroke-width="1.5" marker-end="url(#arrow)"/><path d="M1578.57,315 L1768.43,315 L1768.43,424 L1800.43,424" fill="none" stroke="#85857f" stroke-width="1.5" marker-end="url(#arrow)"/><path d="M1578.57,315 L1607.86,315 L1607.86,334 L1768.43,334 L1768.43,424 L1800.43,424" fill="none" stroke="#85857f" stroke-width="1.5" marker-end="url(#arrow)"/><path d="M2024.79,424 L2053.95,424 L2053.95,101 L1329.28,101 L1329.28,82 L1155.96,82 L1155.96,101 L421.34,101 L421.34,441 L453.34,441" fill="none" stroke="#85857f" stroke-width="1.5" marker-end="url(#arrow)"/><g data-element="developer"><rect x="35.079999999999956" y="387" width="212" height="108" rx="14" fill="#ffffff" stroke="#d5d5d0" stroke-width="1.3"/>
      <g transform="translate(221.08 404) scale(0.667)" color="#759EB5" opacity="0.85"><title>Actor</title><g fill="none" stroke="currentColor" stroke-width="1.5" stroke-linecap="round" stroke-linejoin="round"><circle cx="12" cy="7" r="4"/><path d="M4 21v-2a6 6 0 0 1 6-6h4a6 6 0 0 1 6 6v2"/></g></g>
      <text x="55.08" y="419" font-size="14" font-weight="600" fill="#292927"><tspan x="55.08" dy="0">Developer</tspan></text>
      <text x="55.08" y="443" font-size="12" font-weight="400" fill="#6d6d68"><tspan x="55.08" dy="0">Runs the tasks CLI from a</tspan><tspan x="55.08" dy="17">shell and drives tasks-tui</tspan><tspan x="55.08" dy="17">interactively.</tspan></text>
      </g><g data-element="cli"><rect x="454.3399999999999" y="378.5" width="212" height="125" rx="14" fill="#ffffff" stroke="#d5d5d0" stroke-width="1.3"/>
      <g transform="translate(640.34 395.5) scale(0.667)" color="#82A6B6" opacity="0.85"><title>Subsystem</title><g fill="none" stroke="currentColor" stroke-width="1.5" stroke-linecap="round" stroke-linejoin="round"><rect x="3" y="8" width="13" height="13" rx="2"/><path d="M8 5V3h13v13h-2"/></g></g>
      <text x="474.34" y="410.5" font-size="14" font-weight="600" fill="#292927"><tspan x="474.34" dy="0">tasks CLI</tspan></text>
      <text x="474.34" y="434.5" font-size="12" font-weight="400" fill="#6d6d68"><tspan x="474.34" dy="0">Scriptable, non-interactive</tspan><tspan x="474.34" dy="17">surface: argv in, human text</tspan><tspan x="474.34" dy="17">or byte-exact JSON out,</tspan><tspan x="474.34" dy="17">over the shared core.</tspan></text>
      </g><g data-element="tui"><rect x="454.3399999999999" y="800" width="212" height="142" rx="14" fill="#ffffff" stroke="#d5d5d0" stroke-width="1.3"/>
      <g transform="translate(640.34 817) scale(0.667)" color="#759EB5" opacity="0.85"><title>Subsystem</title><g fill="none" stroke="currentColor" stroke-width="1.5" stroke-linecap="round" stroke-linejoin="round"><rect x="3" y="8" width="13" height="13" rx="2"/><path d="M8 5V3h13v13h-2"/></g></g>
      <text x="474.34" y="832" font-size="14" font-weight="600" fill="#292927"><tspan x="474.34" dy="0">tasks-tui</tspan></text>
      <text x="474.34" y="856" font-size="12" font-weight="400" fill="#6d6d68"><tspan x="474.34" dy="0">Bubble Tea v2 terminal</tspan><tspan x="474.34" dy="17">client of the same</tspan><tspan x="474.34" dy="17">application facade, shipped</tspan><tspan x="474.34" dy="17">standalone and as an</tspan><tspan x="474.34" dy="17">embeddable Go component.</tspan></text>
      </g><g data-element="api"><rect x="454.3399999999999" y="1171.5" width="212" height="142" rx="14" fill="#ffffff" stroke="#d5d5d0" stroke-width="1.3"/>
      <g transform="translate(640.34 1188.5) scale(0.667)" color="#B59669" opacity="0.85"><title>Subsystem</title><g fill="none" stroke="currentColor" stroke-width="1.5" stroke-linecap="round" stroke-linejoin="round"><rect x="3" y="8" width="13" height="13" rx="2"/><path d="M8 5V3h13v13h-2"/></g></g>
      <text x="474.34" y="1203.5" font-size="14" font-weight="600" fill="#292927"><tspan x="474.34" dy="0">tasks-api</tspan></text>
      <text x="474.34" y="1227.5" font-size="12" font-weight="400" fill="#6d6d68"><tspan x="474.34" dy="0">Loopback-only HTTP adapter</tspan><tspan x="474.34" dy="17">over the shared core,</tspan><tspan x="474.34" dy="17">specified by OpenAPI v1. No</tspan><tspan x="474.34" dy="17">remote bind and no auth</tspan><tspan x="474.34" dy="17">mode, by design.</tspan></text>
      </g><g data-element="core"><rect x="915.1999999999998" y="858" width="212" height="180" rx="14" fill="#ffffff" stroke="#d5d5d0" stroke-width="1.3"/>
      <g transform="translate(1101.2 875) scale(0.667)" color="#739886" opacity="0.85"><title>Subsystem</title><g fill="none" stroke="currentColor" stroke-width="1.5" stroke-linecap="round" stroke-linejoin="round"><rect x="3" y="8" width="13" height="13" rx="2"/><path d="M8 5V3h13v13h-2"/></g></g>
      <text x="935.2" y="890" font-size="14" font-weight="600" fill="#292927"><tspan x="935.2" dy="0">Shared</tspan><tspan x="935.2" dy="20">Application Core</tspan></text>
      <text x="935.2" y="935" font-size="12" font-weight="400" fill="#6d6d68"><tspan x="935.2" dy="0">Transport-neutral rules</tspan><tspan x="935.2" dy="17">every surface shares:</tspan><tspan x="935.2" dy="17">command facade, read</tspan><tspan x="935.2" dy="17">models, query and temporal</tspan><tspan x="935.2" dy="17">semantics, links. Knows no</tspan><tspan x="935.2" dy="17">argv, terminal, or HTTP.</tspan></text>
      </g><g data-element="store"><rect x="1362.2799999999997" y="1358" width="218.57999999999996" height="180" rx="14" fill="#ffffff" stroke="#d5d5d0" stroke-width="1.3"/>
      <g transform="translate(1554.86 1375) scale(0.667)" color="#89A579" opacity="0.85"><title>Subsystem</title><g fill="none" stroke="currentColor" stroke-width="1.5" stroke-linecap="round" stroke-linejoin="round"><rect x="3" y="8" width="13" height="13" rx="2"/><path d="M8 5V3h13v13h-2"/></g></g>
      <text x="1382.28" y="1390" font-size="14" font-weight="600" fill="#292927"><tspan x="1382.28" dy="0">Persistence &amp;</tspan><tspan x="1382.28" dy="20">Invariants</tspan></text>
      <text x="1382.28" y="1435" font-size="12" font-weight="400" fill="#6d6d68"><tspan x="1382.28" dy="0">The one checked reader and</tspan><tspan x="1382.28" dy="17">writer over tasks.jsonl and</tspan><tspan x="1382.28" dy="17">archive.jsonl, plus the Git</tspan><tspan x="1382.28" dy="17">merge driver that reuses its</tspan><tspan x="1382.28" dy="17">records, checks, and atomic</tspan><tspan x="1382.28" dy="17">writes.</tspan></text>
      </g><g data-element="external.taskfiles"><rect x="1801.4299999999996" y="1747" width="235.51999999999992" height="163" rx="14" fill="#ffffff" stroke="#d5d5d0" stroke-width="1.3"/>
      <g transform="translate(2010.95 1764) scale(0.667)" color="#89A579" opacity="0.85"><title>Store</title><g fill="none" stroke="currentColor" stroke-width="1.5" stroke-linecap="round" stroke-linejoin="round"><ellipse cx="12" cy="6" rx="8" ry="3"/><path d="M4 6v12c0 4 16 4 16 0V6M4 12c0 4 16 4 16 0"/></g></g>
      <text x="1821.43" y="1779" font-size="14" font-weight="600" fill="#292927"><tspan x="1821.43" dy="0">tasks.jsonl /</tspan><tspan x="1821.43" dy="20">archive.jsonl</tspan></text>
      <text x="1821.43" y="1824" font-size="12" font-weight="400" fill="#6d6d68"><tspan x="1821.43" dy="0">The source of truth: schema-v2</tspan><tspan x="1821.43" dy="17">JSONL, one canonical record per</tspan><tspan x="1821.43" dy="17">line, tree by parent ids in DFS</tspan><tspan x="1821.43" dy="17">pre-order, in a user-owned Git</tspan><tspan x="1821.43" dy="17">repository.</tspan></text>
      </g><g data-element="agent"><rect x="1365.5699999999997" y="227" width="212" height="176" rx="14" fill="#ffffff" stroke="#d5d5d0" stroke-width="1.3"/>
      <g transform="translate(1551.57 244) scale(0.667)" color="#9A91C4" opacity="0.85"><title>Subsystem</title><g fill="none" stroke="currentColor" stroke-width="1.5" stroke-linecap="round" stroke-linejoin="round"><rect x="3" y="8" width="13" height="13" rx="2"/><path d="M8 5V3h13v13h-2"/></g></g>
      <text x="1385.57" y="259" font-size="14" font-weight="600" fill="#292927"><tspan x="1385.57" dy="0">Agent Adapters</tspan></text>
      <text x="1385.57" y="283" font-size="12" font-weight="400" fill="#6d6d68"><tspan x="1385.57" dy="0">The provider seam: a</tspan><tspan x="1385.57" dy="17">harness gets a prompt, a</tspan><tspan x="1385.57" dy="17">system context, and the</tspan><tspan x="1385.57" dy="17">data directory; Tasks</tspan><tspan x="1385.57" dy="17">re-reads the store</tspan><tspan x="1385.57" dy="17">afterwards. No private</tspan><tspan x="1385.57" dy="17">mutation path.</tspan></text>
      </g><g data-element="platform"><rect x="891.6799999999998" y="1569" width="247.27999999999992" height="146" rx="14" fill="#ffffff" stroke="#d5d5d0" stroke-width="1.3"/>
      <g transform="translate(1112.96 1586) scale(0.667)" color="#9AA5A0" opacity="0.85"><title>Subsystem</title><g fill="none" stroke="currentColor" stroke-width="1.5" stroke-linecap="round" stroke-linejoin="round"><rect x="3" y="8" width="13" height="13" rx="2"/><path d="M8 5V3h13v13h-2"/></g></g>
      <text x="911.68" y="1601" font-size="14" font-weight="600" fill="#292927"><tspan x="911.68" dy="0">Configuration &amp;</tspan><tspan x="911.68" dy="20">Harness Pins</tspan></text>
      <text x="911.68" y="1646" font-size="12" font-weight="400" fill="#6d6d68"><tspan x="911.68" dy="0">Seams the composition roots read</tspan><tspan x="911.68" dy="17">once and inject downward: path</tspan><tspan x="911.68" dy="17">and settings resolution, and the</tspan><tspan x="911.68" dy="17">TASKS_PIN_* harness pins.</tspan></text>
      </g><g data-element="platform.jsonout"><rect x="891.6799999999998" y="1161" width="212" height="163" rx="14" fill="#ffffff" stroke="#d5d5d0" stroke-width="1.3"/>
      <g transform="translate(1077.68 1178) scale(0.667)" color="#9AA5A0" opacity="0.85"><title>Component</title><g fill="none" stroke="currentColor" stroke-width="1.5" stroke-linecap="round" stroke-linejoin="round"><path d="M7 7V4h13v16H7v-3m0-6v2"/><rect x="3" y="7" width="8" height="4" rx="1"/><rect x="3" y="13" width="8" height="4" rx="1"/></g></g>
      <text x="911.68" y="1193" font-size="14" font-weight="600" fill="#292927"><tspan x="911.68" dy="0">Ordered JSON</tspan><tspan x="911.68" dy="20">Writer</tspan></text>
      <text x="911.68" y="1238" font-size="12" font-weight="400" fill="#6d6d68"><tspan x="911.68" dy="0">Byte-exact JSON documents</tspan><tspan x="911.68" dy="17">(caller-ordered members,</tspan><tspan x="911.68" dy="17">Ruby escape set) for every</tspan><tspan x="911.68" dy="17">CLI --json verb and the</tspan><tspan x="911.68" dy="17">HTTP envelope.</tspan></text>
      </g><g data-element="external.sidecar"><rect x="25" y="712.5" width="222.07999999999996" height="163" rx="14" fill="#ffffff" stroke="#d5d5d0" stroke-width="1.3"/>
      <g transform="translate(221.08 729.5) scale(0.667)" color="#759EB5" opacity="0.85"><title>Service</title><g fill="none" stroke="currentColor" stroke-width="1.5" stroke-linecap="round" stroke-linejoin="round"><rect x="3" y="4" width="18" height="16" rx="2"/><path d="M3 12h18M7 8h2m-2 8h2"/></g></g>
      <text x="45" y="744.5" font-size="14" font-weight="600" fill="#292927"><tspan x="45" dy="0">Sidecar (Embedding</tspan><tspan x="45" dy="20">Host)</tspan></text>
      <text x="45" y="789.5" font-size="12" font-weight="400" fill="#6d6d68"><tspan x="45" dy="0">The first Go host of pkg/tui:</tspan><tspan x="45" dy="17">owns placement, size, chrome,</tspan><tspan x="45" dy="17">key routing, lifecycle; Tasks</tspan><tspan x="45" dy="17">owns config, data, rendering,</tspan><tspan x="45" dy="17">agent processes.</tspan></text>
      </g><g data-element="external"><rect x="1801.4299999999996" y="351" width="222.35999999999996" height="146" rx="14" fill="#ffffff" stroke="#d5d5d0" stroke-width="1.3"/>
      <g transform="translate(1997.79 368) scale(0.667)" color="#B59669" opacity="0.85"><title>Subsystem</title><g fill="none" stroke="currentColor" stroke-width="1.5" stroke-linecap="round" stroke-linejoin="round"><rect x="3" y="8" width="13" height="13" rx="2"/><path d="M8 5V3h13v13h-2"/></g></g>
      <text x="1821.43" y="383" font-size="14" font-weight="600" fill="#292927"><tspan x="1821.43" dy="0">External Actors &amp;</tspan><tspan x="1821.43" dy="20">Stores</tspan></text>
      <text x="1821.43" y="428" font-size="12" font-weight="400" fill="#6d6d68"><tspan x="1821.43" dy="0">Local clients, spawned agent</tspan><tspan x="1821.43" dy="17">processes, model servers, and</tspan><tspan x="1821.43" dy="17">the non-precious files beside</tspan><tspan x="1821.43" dy="17">the Tasks binaries.</tspan></text>
      </g><g><rect x="296.0799999999999" y="447" width="109.25999999999998" height="38" rx="5" fill="#f8f8f6"/><text x="350.7099999999999" y="460" text-anchor="middle" font-size="11" fill="#62625e"><tspan x="350.7099999999999" dy="0">Runs tasks verbs</tspan><tspan x="350.7099999999999" dy="15">from a shell</tspan></text></g><g><rect x="297.56499999999994" y="877" width="106.28999999999996" height="38" rx="5" fill="#f8f8f6"/><text x="350.7099999999999" y="890" text-anchor="middle" font-size="11" fill="#62625e"><tspan x="350.7099999999999" dy="0">Drives tasks-tui</tspan><tspan x="350.7099999999999" dy="15">interactively</tspan></text></g><g><rect x="1195.9899999999998" y="1737" width="109.25999999999996" height="38" rx="5" fill="#f8f8f6"/><text x="1250.6199999999997" y="1750" text-anchor="middle" font-size="11" fill="#62625e"><tspan x="1250.6199999999997" dy="0">HTTP requests to</tspan><tspan x="1250.6199999999997" dy="15">127.0.0.1</tspan></text></g><g><rect x="307.4649999999999" y="800" width="86.48999999999998" height="53" rx="5" fill="#f8f8f6"/><text x="350.7099999999999" y="813" text-anchor="middle" font-size="11" fill="#62625e"><tspan x="350.7099999999999" dy="0">NewEmbedded,</tspan><tspan x="350.7099999999999" dy="15">Update, View,</tspan><tspan x="350.7099999999999" dy="15">Invoke, Close</tspan></text></g><g><rect x="724.2349999999999" y="1524" width="113.54999999999997" height="38" rx="5" fill="#f8f8f6"/><text x="781.0099999999999" y="1537" text-anchor="middle" font-size="11" fill="#62625e"><tspan x="781.0099999999999" dy="0">Resolves paths,</tspan><tspan x="781.0099999999999" dy="15">settings, and pins</tspan></text></g><g><rect x="724.2349999999999" y="1648" width="113.54999999999997" height="53" rx="5" fill="#f8f8f6"/><text x="781.0099999999999" y="1661" text-anchor="middle" font-size="11" fill="#62625e"><tspan x="781.0099999999999" dy="0">Resolves paths,</tspan><tspan x="781.0099999999999" dy="15">settings, and pins</tspan><tspan x="781.0099999999999" dy="15">×2</tspan></text></g><g><rect x="724.2349999999999" y="1586" width="113.54999999999997" height="38" rx="5" fill="#f8f8f6"/><text x="781.0099999999999" y="1599" text-anchor="middle" font-size="11" fill="#62625e"><tspan x="781.0099999999999" dy="0">Resolves paths,</tspan><tspan x="781.0099999999999" dy="15">settings, and pins</tspan></text></g><g><rect x="722.8599999999999" y="954" width="116.29999999999997" height="38" rx="5" fill="#f8f8f6"/><text x="781.0099999999999" y="967" text-anchor="middle" font-size="11" fill="#62625e"><tspan x="781.0099999999999" dy="0">Parses filters and</tspan><tspan x="781.0099999999999" dy="15">answers views ×2</tspan></text></g><g><rect x="961.6799999999998" y="1076" width="107.27999999999997" height="53" rx="5" fill="#f8f8f6"/><text x="1015.3199999999998" y="1089" text-anchor="middle" font-size="11" fill="#62625e"><tspan x="1015.3199999999998" dy="0">Calls the store</tspan><tspan x="1015.3199999999998" dy="15">directly, not the</tspan><tspan x="1015.3199999999998" dy="15">facade ×4</tspan></text></g><g><rect x="726.4899999999999" y="447" width="109.03999999999998" height="68" rx="5" fill="#f8f8f6"/><text x="781.0099999999999" y="460" text-anchor="middle" font-size="11" fill="#62625e"><tspan x="781.0099999999999" dy="0">capture, project</tspan><tspan x="781.0099999999999" dy="15">complete, drop,</tspan><tspan x="781.0099999999999" dy="15">reopen via the</tspan><tspan x="781.0099999999999" dy="15">facade</tspan></text></g><g><rect x="737.6549999999999" y="1186.5" width="86.71" height="38" rx="5" fill="#f8f8f6"/><text x="781.0099999999999" y="1199.5" text-anchor="middle" font-size="11" fill="#62625e"><tspan x="781.0099999999999" dy="0">Emits --json</tspan><tspan x="781.0099999999999" dy="15">documents ×3</tspan></text></g><g><rect x="953.5399999999998" y="321" width="123.55999999999996" height="53" rx="5" fill="#f8f8f6"/><text x="1015.3199999999998" y="334" text-anchor="middle" font-size="11" fill="#62625e"><tspan x="1015.3199999999998" dy="0">tasks -p: builds the</tspan><tspan x="1015.3199999999998" dy="15">context, runs the</tspan><tspan x="1015.3199999999998" dy="15">harness ×2</tspan></text></g><g><rect x="1188.73" y="430" width="123.77999999999997" height="38" rx="5" fill="#f8f8f6"/><text x="1250.62" y="443" text-anchor="middle" font-size="11" fill="#62625e"><tspan x="1250.62" dy="0">git diff of the task</tspan><tspan x="1250.62" dy="15">files after the run</tspan></text></g><g><rect x="955.7949999999998" y="788" width="119.04999999999997" height="38" rx="5" fill="#f8f8f6"/><text x="1015.3199999999998" y="801" text-anchor="middle" font-size="11" fill="#62625e"><tspan x="1015.3199999999998" dy="0">RunDriver over the</tspan><tspan x="1015.3199999999998" dy="15">stage files</tspan></text></g><g><rect x="1194.6149999999998" y="107" width="112.00999999999999" height="68" rx="5" fill="#f8f8f6"/><text x="1250.62" y="120" text-anchor="middle" font-size="11" fill="#62625e"><tspan x="1250.62" dy="0">Invokes tasks</tspan><tspan x="1250.62" dy="15">merge-driver %O</tspan><tspan x="1250.62" dy="15">%A %B %P %L %X</tspan><tspan x="1250.62" dy="15">%Y</tspan></text></g><g><rect x="727.7549999999999" y="797" width="106.50999999999998" height="53" rx="5" fill="#f8f8f6"/><text x="781.0099999999999" y="810" text-anchor="middle" font-size="11" fill="#62625e"><tspan x="781.0099999999999" dy="0">Reads and writes</tspan><tspan x="781.0099999999999" dy="15">only through the</tspan><tspan x="781.0099999999999" dy="15">facade ×2</tspan></text></g><g><rect x="720.4399999999999" y="877" width="121.13999999999997" height="53" rx="5" fill="#f8f8f6"/><text x="781.0099999999999" y="890" text-anchor="middle" font-size="11" fill="#62625e"><tspan x="781.0099999999999" dy="0">Per-view eligibility,</tspan><tspan x="781.0099999999999" dy="15">grouping, order,</tspan><tspan x="781.0099999999999" dy="15">and outline rules</tspan></text></g><g><rect x="954.0349999999999" y="1454" width="122.56999999999996" height="83" rx="5" fill="#f8f8f6"/><text x="1015.3199999999998" y="1467" text-anchor="middle" font-size="11" fill="#62625e"><tspan x="1015.3199999999998" dy="0">Store helpers</tspan><tspan x="1015.3199999999998" dy="15">outside the facade:</tspan><tspan x="1015.3199999999998" dy="15">format banner,</tspan><tspan x="1015.3199999999998" dy="15">atomic session save</tspan><tspan x="1015.3199999999998" dy="15">×2</tspan></text></g><g><rect x="952.6599999999999" y="229" width="125.31999999999995" height="68" rx="5" fill="#f8f8f6"/><text x="1015.3199999999998" y="242" text-anchor="middle" font-size="11" fill="#62625e"><tspan x="1015.3199999999998" dy="0">Queued request:</tspan><tspan x="1015.3199999999998" dy="15">fresh context, then</tspan><tspan x="1015.3199999999998" dy="15">Start, Done, Cancel</tspan><tspan x="1015.3199999999998" dy="15">×2</tspan></text></g><g><rect x="732.3749999999999" y="708" width="97.27" height="68" rx="5" fill="#f8f8f6"/><text x="781.0099999999999" y="721" text-anchor="middle" font-size="11" fill="#62625e"><tspan x="781.0099999999999" dy="0">Create, delete,</tspan><tspan x="781.0099999999999" dy="15">decisions,</tspan><tspan x="781.0099999999999" dy="15">delegation,</tspan><tspan x="781.0099999999999" dy="15">projects</tspan></text></g><g><rect x="724.2349999999999" y="616" width="113.54999999999997" height="68" rx="5" fill="#f8f8f6"/><text x="781.0099999999999" y="629" text-anchor="middle" font-size="11" fill="#62625e"><tspan x="781.0099999999999" dy="0">Validates</tspan><tspan x="781.0099999999999" dy="15">recurrence, lead,</tspan><tspan x="781.0099999999999" dy="15">zone, and link</tspan><tspan x="781.0099999999999" dy="15">inputs directly ×4</tspan></text></g><g><rect x="719.3399999999999" y="539" width="123.33999999999996" height="53" rx="5" fill="#f8f8f6"/><text x="781.0099999999999" y="552" text-anchor="middle" font-size="11" fill="#62625e"><tspan x="781.0099999999999" dy="0">Named views, the</tspan><tspan x="781.0099999999999" dy="15">outline, and section</tspan><tspan x="781.0099999999999" dy="15">roles</tspan></text></g><g><rect x="723.3549999999999" y="1248.5" width="115.30999999999997" height="38" rx="5" fill="#f8f8f6"/><text x="781.0099999999999" y="1261.5" text-anchor="middle" font-size="11" fill="#62625e"><tspan x="781.0099999999999" dy="0">Renders envelopes</tspan><tspan x="781.0099999999999" dy="15">and resources</tspan></text></g><g><rect x="956.2899999999998" y="1359" width="118.05999999999997" height="68" rx="5" fill="#f8f8f6"/><text x="1015.3199999999998" y="1372" text-anchor="middle" font-size="11" fill="#62625e"><tspan x="1015.3199999999998" dy="0">Two named seams:</tspan><tspan x="1015.3199999999998" dy="15">checked read,</tspan><tspan x="1015.3199999999998" dy="15">guarded changeset</tspan><tspan x="1015.3199999999998" dy="15">×2</tspan></text></g><g><rect x="1187.9599999999998" y="1364" width="125.31999999999996" height="68" rx="5" fill="#f8f8f6"/><text x="1250.62" y="1377" text-anchor="middle" font-size="11" fill="#62625e"><tspan x="1250.62" dy="0">A fresh store per</tspan><tspan x="1250.62" dy="15">operation behind</tspan><tspan x="1250.62" dy="15">the owned interface</tspan><tspan x="1250.62" dy="15">×2</tspan></text></g><g><rect x="1194.34" y="772" width="112.55999999999996" height="68" rx="5" fill="#f8f8f6"/><text x="1250.62" y="785" text-anchor="middle" font-size="11" fill="#62625e"><tspan x="1250.62" dy="0">Shared rules on</tspan><tspan x="1250.62" dy="15">write: recurrence</tspan><tspan x="1250.62" dy="15">roll, formal link</tspan><tspan x="1250.62" dy="15">checks ×2</tspan></text></g><g><rect x="1634.7549999999997" y="1754.5" width="112.77999999999997" height="53" rx="5" fill="#f8f8f6"/><text x="1691.1449999999995" y="1767.5" text-anchor="middle" font-size="11" fill="#62625e"><tspan x="1691.1449999999995" dy="0">Reads live and</tspan><tspan x="1691.1449999999995" dy="15">archive under the</tspan><tspan x="1691.1449999999995" dy="15">shared lock</tspan></text></g><g><rect x="1629.8599999999997" y="1834.5" width="122.56999999999995" height="38" rx="5" fill="#f8f8f6"/><text x="1691.1449999999998" y="1847.5" text-anchor="middle" font-size="11" fill="#62625e"><tspan x="1691.1449999999998" dy="0">Installs whole files:</tspan><tspan x="1691.1449999999998" dy="15">temp, fsync, rename</tspan></text></g><g><rect x="1639.7599999999998" y="216" width="102.76999999999997" height="38" rx="5" fill="#f8f8f6"/><text x="1691.1449999999998" y="229" text-anchor="middle" font-size="11" fill="#62625e"><tspan x="1691.1449999999998" dy="0">blobs/&lt;sha&gt; and</tspan><tspan x="1691.1449999999998" dy="15">index.json</tspan></text></g><g><rect x="1630.2449999999997" y="124" width="121.79999999999997" height="68" rx="5" fill="#f8f8f6"/><text x="1691.1449999999998" y="137" text-anchor="middle" font-size="11" fill="#62625e"><tspan x="1691.1449999999998" dy="0">Spawns the harness</tspan><tspan x="1691.1449999999998" dy="15">in the data</tspan><tspan x="1691.1449999999998" dy="15">directory; cancel</tspan><tspan x="1691.1449999999998" dy="15">via process group</tspan></text></g><g><rect x="1633.1049999999996" y="275" width="116.07999999999998" height="38" rx="5" fill="#f8f8f6"/><text x="1691.1449999999995" y="288" text-anchor="middle" font-size="11" fill="#62625e"><tspan x="1691.1449999999995" dy="0">Reachability probe</tspan><tspan x="1691.1449999999995" dy="15">before every run</tspan></text></g><g><rect x="1643.3899999999996" y="340" width="95.50999999999998" height="68" rx="5" fill="#f8f8f6"/><text x="1691.1449999999995" y="353" text-anchor="middle" font-size="11" fill="#62625e"><tspan x="1691.1449999999995" dy="0">Injects</tspan><tspan x="1691.1449999999995" dy="15">user-approved</tspan><tspan x="1691.1449999999995" dy="15">defaults, read</tspan><tspan x="1691.1449999999995" dy="15">fresh</tspan></text></g><g><rect x="1192.0849999999998" y="27" width="117.06999999999996" height="53" rx="5" fill="#f8f8f6"/><text x="1250.62" y="40" text-anchor="middle" font-size="11" fill="#62625e"><tspan x="1250.62" dy="0">Reads and mutates</tspan><tspan x="1250.62" dy="15">only through the</tspan><tspan x="1250.62" dy="15">installed tasks CLI</tspan></text></g></g>
  <g data-export-layer="legend"></g><path d="M96 1010H1824" stroke="#ddddda"/><text x="96" y="1044" font-size="13" fill="#7d7d77">STRUCTURE · CURRENT SYSTEM</text><text x="1824" y="1044" text-anchor="end" font-size="13" fill="#7d7d77">tasks · Authored architecture</text></g></svg>
